<svg width="38" height="38" viewBox="0 0 38 38" fill="none" xmlns="http://www.w3.org/2000/svg">
<g clip-path="url(#clip0_75_309)">
<path d="M1.58325 1.58334H7.91659L12.1599 22.7842C12.3047 23.5131 12.7013 24.1679 13.2802 24.634C13.8591 25.1 14.5835 25.3476 15.3266 25.3333H30.7166C31.4597 25.3476 32.184 25.1 32.763 24.634C33.3419 24.1679 33.7385 23.5131 33.8833 22.7842L36.4166 9.5H9.49992M15.8333 33.25C15.8333 34.1245 15.1244 34.8333 14.2499 34.8333C13.3755 34.8333 12.6666 34.1245 12.6666 33.25C12.6666 32.3756 13.3755 31.6667 14.2499 31.6667C15.1244 31.6667 15.8333 32.3756 15.8333 33.25ZM33.2499 33.25C33.2499 34.1245 32.541 34.8333 31.6666 34.8333C30.7921 34.8333 30.0833 34.1245 30.0833 33.25C30.0833 32.3756 30.7921 31.6667 31.6666 31.6667C32.541 31.6667 33.2499 32.3756 33.2499 33.25Z" stroke="#1E1E1E" stroke-width="4" stroke-linecap="round" stroke-linejoin="round"/>
</g>
<defs>
<clipPath id="clip0_75_309">
<rect width="38" height="38" fill="white"/>
</clipPath>
</defs>
</svg>
